
<svg width="1440" height="900" viewBox="0 0 1440 900" fill="none" xmlns="http://www.w3.org/2000/svg">
  <rect width="1440" height="900" fill="#0A0A20"/>
  
  <!-- Small stars -->
  <g opacity="0.8">
    <circle cx="100" cy="100" r="1" fill="white" opacity="0.8"/>
    <circle cx="200" cy="150" r="1.5" fill="#87CEFA" opacity="0.7"/>
    <circle cx="300" cy="200" r="1" fill="white" opacity="0.7"/>
    <circle cx="400" cy="250" r="2" fill="#E6E6FA" opacity="0.9"/>
    <circle cx="500" cy="300" r="1" fill="white" opacity="0.5"/>
    <circle cx="600" cy="350" r="1.5" fill="#87CEFA" opacity="0.8"/>
    <circle cx="700" cy="400" r="1" fill="white" opacity="0.7"/>
    <circle cx="800" cy="450" r="2" fill="#E6E6FA" opacity="0.6"/>
  </g>
  
  <!-- Medium stars -->
  <g opacity="0.9">
    <circle cx="900" cy="500" r="1" fill="white" opacity="0.9"/>
    <circle cx="1000" cy="550" r="1.5" fill="#87CEFA" opacity="0.7"/>
    <circle cx="1100" cy="600" r="1" fill="white" opacity="0.8"/>
    <circle cx="1200" cy="650" r="2" fill="#E6E6FA" opacity="0.5"/>
  </g>
  
  <!-- Large stars with glow effect -->
  <g opacity="1.0">
    <circle cx="120" cy="210" r="2" fill="white" opacity="0.9">
      <animate attributeName="opacity" values="0.5;1;0.5" dur="3s" repeatCount="indefinite" />
    </circle>
    <circle cx="450" cy="380" r="2.5" fill="#87CEFA" opacity="0.8">
      <animate attributeName="opacity" values="0.6;1;0.6" dur="4s" repeatCount="indefinite" />
    </circle>
    <circle cx="780" cy="120" r="2" fill="white" opacity="0.7">
      <animate attributeName="opacity" values="0.4;0.9;0.4" dur="5s" repeatCount="indefinite" />
    </circle>
    <circle cx="1020" cy="640" r="2.5" fill="#E6E6FA" opacity="0.9">
      <animate attributeName="opacity" values="0.7;1;0.7" dur="4.5s" repeatCount="indefinite" />
    </circle>
  </g>
  
  <!-- Scattered stars across the canvas -->
  <g opacity="0.7">
    <circle cx="150" cy="800" r="1" fill="white" opacity="0.7"/>
    <circle cx="250" cy="850" r="2" fill="#87CEFA" opacity="0.8"/>
    <circle cx="350" cy="80" r="1" fill="white" opacity="0.5"/>
    <circle cx="450" cy="180" r="1.5" fill="#E6E6FA" opacity="0.6"/>
    <circle cx="550" cy="280" r="1" fill="white" opacity="0.9"/>
    <circle cx="650" cy="380" r="2" fill="#87CEFA" opacity="0.7"/>
    <circle cx="750" cy="480" r="1" fill="white" opacity="0.8"/>
    <circle cx="850" cy="580" r="1.5" fill="#E6E6FA" opacity="0.5"/>
    <circle cx="950" cy="680" r="1" fill="white" opacity="0.6"/>
    <circle cx="1050" cy="780" r="2" fill="#87CEFA" opacity="0.9"/>
    <circle cx="1150" cy="60" r="1" fill="white" opacity="0.7"/>
    <circle cx="1250" cy="160" r="1.5" fill="#E6E6FA" opacity="0.8"/>
    <circle cx="1350" cy="260" r="1" fill="white" opacity="0.5"/>
  </g>
  
  <!-- Nebula-like effect -->
  <g opacity="0.1">
    <ellipse cx="700" cy="450" rx="400" ry="300" fill="url(#purpleGradient)" />
    <ellipse cx="1100" cy="700" rx="300" ry="200" fill="url(#blueGradient)" />
  </g>
  
  <!-- Gradients -->
  <defs>
    <radialGradient id="purpleGradient" cx="0.5" cy="0.5" r="0.5" gradientUnits="objectBoundingBox">
      <stop offset="0%" stop-color="#7950f2" stop-opacity="0.3"/>
      <stop offset="100%" stop-color="#7950f2" stop-opacity="0"/>
    </radialGradient>
    
    <radialGradient id="blueGradient" cx="0.5" cy="0.5" r="0.5" gradientUnits="objectBoundingBox">
      <stop offset="0%" stop-color="#4cc9f0" stop-opacity="0.3"/>
      <stop offset="100%" stop-color="#4cc9f0" stop-opacity="0"/>
    </radialGradient>
  </defs>
</svg>
