
<svg width="1440" height="900" viewBox="0 0 1440 900" fill="none" xmlns="http://www.w3.org/2000/svg">
  <rect width="1440" height="900" fill="#0D0620"/>
  <circle cx="100" cy="100" r="1" fill="white" opacity="0.8"/>
  <circle cx="200" cy="150" r="1.5" fill="white" opacity="0.6"/>
  <circle cx="300" cy="200" r="1" fill="white" opacity="0.7"/>
  <circle cx="400" cy="250" r="2" fill="white" opacity="0.9"/>
  <circle cx="500" cy="300" r="1" fill="white" opacity="0.5"/>
  <circle cx="600" cy="350" r="1.5" fill="white" opacity="0.8"/>
  <circle cx="700" cy="400" r="1" fill="white" opacity="0.7"/>
  <circle cx="800" cy="450" r="2" fill="white" opacity="0.6"/>
  <circle cx="900" cy="500" r="1" fill="white" opacity="0.9"/>
  <circle cx="1000" cy="550" r="1.5" fill="white" opacity="0.7"/>
  <circle cx="1100" cy="600" r="1" fill="white" opacity="0.8"/>
  <circle cx="1200" cy="650" r="2" fill="white" opacity="0.5"/>
  <circle cx="1300" cy="700" r="1" fill="white" opacity="0.6"/>
  <circle cx="1400" cy="750" r="1.5" fill="white" opacity="0.9"/>
  <circle cx="150" cy="800" r="1" fill="white" opacity="0.7"/>
  <circle cx="250" cy="850" r="2" fill="white" opacity="0.8"/>
  <circle cx="350" cy="80" r="1" fill="white" opacity="0.5"/>
  <circle cx="450" cy="180" r="1.5" fill="white" opacity="0.6"/>
  <circle cx="550" cy="280" r="1" fill="white" opacity="0.9"/>
  <circle cx="650" cy="380" r="2" fill="white" opacity="0.7"/>
  <circle cx="750" cy="480" r="1" fill="white" opacity="0.8"/>
  <circle cx="850" cy="580" r="1.5" fill="white" opacity="0.5"/>
  <circle cx="950" cy="680" r="1" fill="white" opacity="0.6"/>
  <circle cx="1050" cy="780" r="2" fill="white" opacity="0.9"/>
  <circle cx="1150" cy="60" r="1" fill="white" opacity="0.7"/>
  <circle cx="1250" cy="160" r="1.5" fill="white" opacity="0.8"/>
  <circle cx="1350" cy="260" r="1" fill="white" opacity="0.5"/>
</svg>
